# xmcd
#
# Track frame offsets: 
#        150
#        27113
#        63668
#        70712
#        133194
#        198381
#        226483
#        267146
#        291078
#
# Disc length: 4318 seconds
#
# Revision: 0
# Processed by: cddbd v1.5.2PL0 Copyright (c) Steve Scherf et al.
# Submitted via: ExactAudioCopy v0.99pb5
#
DISCID=8410dc09
DTITLE=Blind Faith - The Morgan Rehearsals (Bootleg Disk 1)
DYEAR=1969
DGENRE=Blues
TTITLE0=Key To The highway
TTITLE1=Instrumental Song #1
TTITLE2=Instrumental Song #1 - Reprise
TTITLE3=Change Of Address Jam - complete
TTITLE4=Jam #1 - African Chants
TTITLE5=Jam #2
TTITLE6=Jam #3
TTITLE7=Instrumental Song #1 - take 2
TTITLE8=Well All Right - take 1
EXTD=
EXTT0=
EXTT1=
EXTT2=
EXTT3=
EXTT4=
EXTT5=
EXTT6=
EXTT7=
EXTT8=
PLAYORDER=
